# xmcd
# Copyright (C) 1995-1998 Ti Kan
#
# Track frame offsets:
#       150
#       22637
#       38682
#       61160
#       78167
#       103182
#       116105
#       136412
#       155467
#       169315
#       188790
#       208295
#       225525
#       245147
#
# Disc length: 3481 seconds
#
# Revision: 0
# Processed by: cddbd v1.5.1PL0 Copyright (c) Steve Scherf et al.
# Submitted via: CD-Transfer v1.0
#
DISCID=b80d970e
DTITLE=PGM - 
DYEAR=97
DGENRE=
TTITLE0=Miles behind
TTITLE1=Eyes
TTITLE2=Easy
TTITLE3=Egg in your shoe
TTITLE4=This love
TTITLE5=Patito
TTITLE6=Dick is dead
TTITLE7=Going away
TTITLE8=Time
TTITLE9=False Pride
TTITLE10=How much I care
TTITLE11=High Speed
TTITLE12=Keep
TTITLE13=Irish Jig
EXTD=
EXTT0=
EXTT1=
EXTT2=
EXTT3=
EXTT4=
EXTT5=
EXTT6=
EXTT7=
EXTT8=
EXTT9=
EXTT10=
EXTT11=
EXTT12=
EXTT13=
PLAYORDER=
